<svg xmlns="http://www.w3.org/2000/svg" viewBox="0 0 703.39 289"><defs><style>.cls-1,.cls-2{fill:#fff;}.cls-1{opacity:0.86;}</style></defs><g id="Capa_2" data-name="Capa 2"><g id="Capa_1-2" data-name="Capa 1"><path class="cls-1" d="M105.23,289,0,219.69v-146L105.25,0l107,75.75V218.66ZM8.34,214l96.9,63.82,98.67-64.87V81.27L105.22,11.41,8.34,79.2Z"/><polygon class="cls-1" points="122.35 52.29 42.64 130.07 48.29 174.75 92.02 174.75 129.28 136.88 141.73 136.88 144.4 143.14 92.72 193.78 87.08 236.81 169.6 153.24 158.32 112.69 124.96 109.79 83.55 150.75 68.04 150.75 68.04 144.55 123.05 91.18 122.35 52.29"/><path class="cls-2" d="M245.8,116.12h13.45c2.33,0,3.56-.21,4.43-.85a4.65,4.65,0,0,0,1.82-4.07c0-2.14-.82-3.8-2.28-4.55a10.18,10.18,0,0,0-4.1-.53h-3.93c-3.6,0-5.92-.59-7.48-1.93a9.93,9.93,0,0,1-3.14-7.76c0-4.11,1.73-7.7,4.51-9.36,1.64-.91,3.65-1.28,7.25-1.28H270v5.35H257a9.75,9.75,0,0,0-4.52.7,4.54,4.54,0,0,0-1.87,4.06c0,3.26,1.69,4.55,6.11,4.55H260c4.7,0,7,.59,8.76,2.3s2.83,4.87,2.83,8.34c0,4-1.46,7.22-4,8.88-1.64,1.18-3.51,1.5-8,1.5H245.8Z"/><path class="cls-2" d="M324.06,103.92c0,11.77-5.06,17.93-14.73,17.93-5.38,0-9.62-2-11.95-5.51-1.91-2.84-3-7.55-3-12.58,0-5.93,1.37-10.91,3.79-13.74,2.6-3,6.38-4.61,11.21-4.61C319.32,85.41,324.06,91.41,324.06,103.92Zm-23.62-.42c0,9.14,2.69,13.16,8.8,13.16s8.75-4,8.75-12.9c0-9.14-2.64-13.16-8.62-13.16C303.17,90.6,300.44,94.62,300.44,103.5Z"/><path class="cls-2" d="M354,85.79v20.44c.09,5,.41,6.63,1.46,7.86,1.23,1.39,3.46,2.08,6.65,2h6.39v5.35h-7.21c-5.47,0-7.38-.64-9.94-3.21-2.14-2.41-2.87-5.24-2.92-11.66V85.79Z"/><path class="cls-2" d="M396.3,107.08c0,3.69.41,5.62,1.46,7a7.25,7.25,0,0,0,6.06,2.62c3.2,0,5.61-1.23,6.71-3.32.59-1.23.82-2.89.82-6.58v-21h5.56v20.86c0,6.1-.73,9-2.78,11.29-2.37,2.68-5.88,4-10.67,4s-8.12-1.44-10.31-4.39c-1.77-2.4-2.41-5.08-2.41-10.38V85.79h5.56Z"/><path class="cls-2" d="M465.8,121.47h-9.94c-5.15,0-8.12-1-10.4-3.48-2.69-2.94-4.24-8.07-4.24-14.17,0-7.17,2.19-13.11,5.75-15.78,2-1.45,5.06-2.25,8.85-2.25h10v5.35h-9.48c-3.47,0-5.52.8-6.89,2.67s-2.14,5.51-2.14,9.79c0,4.61,1,8.3,2.6,10.22,1.46,1.66,3.33,2.3,6.75,2.3h9.16Z"/><path class="cls-2" d="M490.52,85.79h5.57v35.68h-5.57Z"/><path class="cls-2" d="M550.49,103.92c0,11.77-5.06,17.93-14.73,17.93-5.38,0-9.62-2-11.94-5.51-1.92-2.84-3-7.55-3-12.58,0-5.93,1.36-10.91,3.78-13.74,2.6-3,6.39-4.61,11.22-4.61C545.75,85.41,550.49,91.41,550.49,103.92Zm-23.62-.42c0,9.14,2.69,13.16,8.8,13.16s8.76-4,8.76-12.9c0-9.14-2.65-13.16-8.62-13.16C529.61,90.6,526.87,94.62,526.87,103.5Z"/><path class="cls-2" d="M580.6,121.47h-5.39V85.79h6.94l14,27.66V85.79h5.38v35.68h-6.7L580.6,94Z"/><path class="cls-2" d="M650.1,91.14h-8.67c-6.15-.16-8.8,2.67-9,9.79h17.7v5.35H632.4c.28,6.85,3.06,9.89,9,9.84h8.67v5.35h-9.3c-5.43,0-8.71-1.23-10.95-4.17-2.51-3.21-3.69-7.6-3.69-13.43,0-6.63,1.64-11.61,5-15,2.14-2.19,4.88-3.1,9.35-3.1h9.62Z"/><path class="cls-2" d="M674.27,116.12h13.45c2.33,0,3.56-.21,4.43-.85A4.65,4.65,0,0,0,694,111.2c0-2.14-.82-3.8-2.28-4.55a10.18,10.18,0,0,0-4.1-.53h-3.92c-3.61,0-5.93-.59-7.48-1.93A9.9,9.9,0,0,1,673,96.43c0-4.11,1.73-7.7,4.51-9.36,1.65-.91,3.65-1.28,7.26-1.28h13.68v5.35h-13a9.75,9.75,0,0,0-4.52.7,4.54,4.54,0,0,0-1.87,4.06c0,3.26,1.69,4.55,6.12,4.55h3.23c4.7,0,7,.59,8.76,2.3s2.83,4.87,2.83,8.34c0,4-1.46,7.22-4,8.88-1.64,1.18-3.51,1.5-8,1.5H674.27Z"/><path class="cls-2" d="M274.9,160.58H262.71c-8.66-.23-12.38,3.76-12.7,13.77H274.9v7.53H250c.38,9.63,4.29,13.92,12.7,13.84H274.9v7.53H261.81c-7.64,0-12.25-1.73-15.4-5.87-3.53-4.52-5.19-10.69-5.19-18.89,0-9.33,2.31-16.33,7-21.07,3-3.09,6.86-4.36,13.15-4.36H274.9Z"/><path class="cls-2" d="M289.58,153.06V181.8c.13,7.08.58,9.33,2.06,11.06,1.73,2,4.87,2.94,9.36,2.86h9v7.53H299.85c-7.7-.07-10.39-.9-14-4.52-3-3.38-4-7.37-4.1-16.4V153.06Z"/><path class="cls-2" d="M346.35,160.58H334.16c-8.66-.23-12.38,3.76-12.7,13.77h24.89v7.53H321.46c.39,9.63,4.3,13.92,12.7,13.84h12.19v7.53H333.27c-7.64,0-12.26-1.73-15.4-5.87-3.53-4.52-5.2-10.69-5.2-18.89,0-9.33,2.31-16.33,7-21.07,3-3.09,6.86-4.36,13.15-4.36h13.53Z"/><path class="cls-2" d="M385.55,203.25h-14c-7.25,0-11.42-1.36-14.62-4.89-3.79-4.14-6-11.37-6-19.94,0-10.09,3.08-18.44,8.08-22.2,2.83-2,7.12-3.16,12.45-3.16h14.05v7.52H372.2c-4.87,0-7.76,1.13-9.68,3.76s-3,7.75-3,13.78c0,6.47,1.35,11.66,3.66,14.37,2,2.33,4.68,3.23,9.49,3.23h12.9Z"/><path class="cls-2" d="M388.82,160.58v-7.52h36.63v7.52H411v42.67h-7.83V160.58Z"/><path class="cls-2" d="M437.76,203.25h-7.83V153.06H450c6,0,9.75.82,12.13,2.7,3.08,2.41,4.87,6.55,4.87,11.29a16.43,16.43,0,0,1-3.33,10.46,11.47,11.47,0,0,1-5.2,3.31c5.33,2.19,7.44,6.25,7.83,14.75.32,5.35.38,5.8,1.09,7.68h-8.47a11,11,0,0,1-.51-2.18c0-.45-.13-1.36-.2-2.64L458,196c-.77-9.86-4.1-13.17-13.21-13.1h-7.06Zm12.45-27.85c3.08,0,4.87-.37,6-1.35,1.54-1.28,2.31-3.39,2.31-6.17,0-3.09-1-5.42-2.89-6.47-1-.6-2.43-.83-5.38-.83H437.76V175.4Z"/><path class="cls-2" d="M513.39,178.57c0,16.55-7.12,25.21-20.72,25.21-7.57,0-13.54-2.79-16.81-7.75-2.69-4-4.23-10.62-4.23-17.69,0-8.35,1.92-15.35,5.32-19.34,3.72-4.29,9-6.47,15.78-6.47C506.72,152.53,513.39,161,513.39,178.57ZM480.16,178c0,12.87,3.78,18.52,12.38,18.52s12.32-5.57,12.32-18.14c0-12.87-3.72-18.51-12.13-18.51C484,159.83,480.16,165.47,480.16,178Zm13.34-28.89h-5.13l5.84-9.26h7.38Z"/><path class="cls-2" d="M527.63,203.25h-7.57V153.06h9.75L549.44,192v-38.9H557v50.19h-9.43l-20-38.61Z"/><path class="cls-2" d="M566,153.06h7.82v50.19H566Z"/><path class="cls-2" d="M615.06,203.25h-14c-7.25,0-11.42-1.36-14.63-4.89-3.79-4.14-6-11.37-6-19.94,0-10.09,3.08-18.44,8.09-22.2,2.82-2,7.12-3.16,12.44-3.16h14v7.52H601.72c-4.88,0-7.77,1.13-9.69,3.76s-3,7.75-3,13.78c0,6.47,1.35,11.66,3.66,14.37,2.05,2.33,4.68,3.23,9.5,3.23h12.89Z"/><path class="cls-2" d="M636,153.06h9.69L663,203.25h-8.86l-4.23-12.42H631.41l-4.36,12.42h-8.79Zm-2.5,30.25h14.3l-7-21.53Z"/><path class="cls-2" d="M667.14,195.72h18.93c3.27,0,5-.3,6.22-1.2,1.67-1.13,2.57-3.09,2.57-5.72,0-3-1.16-5.34-3.21-6.4-1.16-.52-2.76-.75-5.77-.75h-5.52c-5.07,0-8.34-.83-10.52-2.71-2.82-2.33-4.43-6.32-4.43-10.91,0-5.79,2.44-10.84,6.35-13.17,2.31-1.28,5.13-1.8,10.2-1.8h19.25v7.52H682.92c-3.27,0-5,.3-6.35,1-1.6.9-2.63,3.08-2.63,5.72,0,4.59,2.38,6.39,8.6,6.39h4.56c6.6,0,9.87.83,12.31,3.24s4,6.85,4,11.74c0,5.57-2,10.16-5.58,12.49-2.31,1.66-4.94,2.11-11.29,2.11H667.14Z"/></g></g></svg>