<svg xmlns="http://www.w3.org/2000/svg" viewBox="0 0 648.89 274.09"><defs><style>.cls-1{fill:#fff;}</style></defs><g id="Capa_2" data-name="Capa 2"><g id="Capa_1-2" data-name="Capa 1"><path class="cls-1" d="M307.63,110.29H274.24V66.84l-109.38,123a15.85,15.85,0,0,1-23.71-.24L33.39,67.37v139.7H0V21.51q0-9.38,4.26-15A12.94,12.94,0,0,1,15,.93q7.13,0,13.57,7.31L153,149.94,279.32,8.24Q285.53.94,292.67.93a13,13,0,0,1,10.7,5.6q4.25,5.61,4.26,15Z"/><path class="cls-1" d="M648.89,206.15H615.5V65.92l-109.37,123a15.87,15.87,0,0,1-23.72-.23L374.65,66.44v42.92H341.26V20.58q0-9.37,4.26-15A13,13,0,0,1,356.22,0q7.14,0,13.58,7.32L494.23,149,620.59,7.32Q626.8,0,633.93,0a12.94,12.94,0,0,1,10.7,5.6q4.26,5.61,4.26,15Z"/><path class="cls-1" d="M358.82,154.29l-17,29.77c-7.66,13.23-12,21.19-26.51,21.19-14.22,0-22-9-22-23.2,0-11,4.88-18.07,19.61-26.38,10.86-6.17,12.26-10.69,12.26-16.57,0-4.5-1.58-8.08-6.35-8.08-4.1,0-6.27,3.54-6.27,8.35s2.54,9,6.62,14l41.49,50.78H342.15L307.39,161c-4.66-6.06-8.7-12.26-8.7-20.88,0-10,6.24-20.31,20.13-20.31,12.6,0,19.75,8.26,19.75,18.89,0,12-6.8,18-18.75,24.65-8.91,5.11-12,9.85-12,17.15,0,7.61,3.25,12.11,9,12.11s8.68-4,15.37-16.25l12-22.08Z"/><path class="cls-1" d="M34.9,264.88c-.14,1.77-.89,9.21-8.66,9.21-8.42,0-9.13-8.6-9.13-16.28,0-9.28,2.51-15.88,9.5-15.88,7.66,0,8.13,7.06,8.21,9.08H31c-.07-1.06-.24-5.7-4.44-5.7-4.66,0-5.43,6.26-5.43,12.54,0,6.45.7,12.9,5.22,12.9,4,0,4.56-4.36,4.7-5.87Z"/><path class="cls-1" d="M66.22,257.73c0,10.79-2.64,16.36-9.49,16.36-6.48,0-9.26-5.4-9.26-16.33,0-10.76,3.25-15.83,9.44-15.83C63.44,241.93,66.22,247.1,66.22,257.73Zm-14.8,0c0,8.62,1.67,13.09,5.43,13.09s5.42-4.3,5.42-13-1.65-12.48-5.45-12.48S51.42,249.48,51.42,257.69Z"/><path class="cls-1" d="M80.28,273.61V242.39H84.9c8.22,20.78,9.44,23.79,9.83,25.18h0c-.23-4.11-.28-8.79-.28-13.87V242.39h3.55v31.22H93.63c-8.53-21.89-9.65-24.84-10-26.11h-.05c.23,3.89.25,8.91.25,14.52v11.59Z"/><path class="cls-1" d="M117.23,245.79h-6.91v-3.4H128v3.4h-6.91v27.82h-3.83Z"/><path class="cls-1" d="M144.26,259.44v14.17h-3.82V242.39h8.42c5.32,0,8.15,3,8.15,8.15,0,4.64-2.31,6.62-4.15,7.26,2.8,1.05,3.75,3.51,3.75,7.93V267a34.56,34.56,0,0,0,.44,6.64h-3.79a29.3,29.3,0,0,1-.47-6.71v-1.07c0-4.4-.92-6.39-5-6.39Zm0-3.22H148c3.72,0,5.13-2,5.13-5.56,0-3-1.42-5-4.76-5h-4.1Z"/><path class="cls-1" d="M175.12,264.09,173,273.61h-3.84l7.48-31.22h5l7.68,31.22h-4.06l-2.16-9.52Zm7.19-3.39c-1.69-7.34-2.81-12.13-3.24-14.71H179c-.42,2.75-1.64,8.19-3.1,14.71Z"/><path class="cls-1" d="M203.33,245.79h-6.9v-3.4h17.64v3.4h-6.9v27.82h-3.84Z"/><path class="cls-1" d="M230.38,242.39v31.22h-3.84V242.39Z"/><path class="cls-1" d="M247.55,265.3c.25,3.09,1.69,5.6,5,5.6s4.7-1.77,4.7-5.13c0-3.14-1.31-4.85-5.51-6.86-5-2.38-7.12-4.56-7.12-9.1s2.84-7.85,8-7.85c6.21,0,7.86,4.4,8,8.14h-3.77c-.16-1.57-.62-5-4.3-5-2.85,0-4.07,1.94-4.07,4.37,0,2.85,1.27,4.19,5.13,6,5.49,2.6,7.58,5.19,7.58,9.95,0,4.92-2.83,8.61-8.74,8.61-6.43,0-8.51-4.19-8.75-8.76Z"/><path class="cls-1" d="M278.94,245.79H272v-3.4h17.65v3.4h-6.91v27.82h-3.84Z"/><path class="cls-1" d="M303,264.09l-2.13,9.52H297l7.48-31.22h5l7.68,31.22h-4.07l-2.16-9.52Zm7.19-3.39c-1.69-7.34-2.82-12.13-3.25-14.71h-.11c-.42,2.75-1.64,8.19-3.1,14.71Z"/><path class="cls-1" d="M332.64,265.3c.25,3.09,1.7,5.6,5,5.6s4.7-1.77,4.7-5.13c0-3.14-1.31-4.85-5.5-6.86-5-2.38-7.13-4.56-7.13-9.1s2.84-7.85,8-7.85c6.22,0,7.86,4.4,8,8.14h-3.78c-.16-1.57-.62-5-4.3-5-2.85,0-4.07,1.94-4.07,4.37,0,2.85,1.27,4.19,5.13,6,5.49,2.6,7.58,5.19,7.58,9.95,0,4.92-2.83,8.61-8.74,8.61-6.43,0-8.51-4.19-8.74-8.76Z"/><path class="cls-1" d="M394.76,273.61h-3a26.76,26.76,0,0,1-.23-3.24c-1.09,2.23-2.77,3.72-6.24,3.72-6.71,0-8.6-6.75-8.6-16,0-10.88,3.41-16.14,9.82-16.14,7.67,0,8.16,6.76,8.25,8.62H391c-.1-1.13-.35-5.29-4.54-5.29s-5.71,5.11-5.71,12.76,1.11,12.76,5.35,12.76c4,0,4.92-3.28,4.92-9.45v-1.57h-5.19v-3.35h9Z"/><path class="cls-1" d="M423.56,258.83H413.22v11.41h11.51l-.51,3.37h-14.8V242.39h14.65v3.4H413.22v9.66h10.34Z"/><path class="cls-1" d="M437.62,273.61V242.39h4.62c8.22,20.78,9.44,23.79,9.83,25.18h.05c-.23-4.11-.28-8.79-.28-13.87V242.39h3.55v31.22H451c-8.53-21.89-9.65-24.84-10-26.11h0c.23,3.89.25,8.91.25,14.52v11.59Z"/><path class="cls-1" d="M484.73,258.83H474.39v11.41H485.9l-.51,3.37h-14.8V242.39h14.65v3.4H474.39v9.66h10.34Z"/><path class="cls-1" d="M502.61,259.44v14.17h-3.82V242.39h8.41c5.33,0,8.16,3,8.16,8.15,0,4.64-2.31,6.62-4.15,7.26,2.8,1.05,3.75,3.51,3.75,7.93V267a34.56,34.56,0,0,0,.44,6.64h-3.79a29.3,29.3,0,0,1-.47-6.71v-1.07c0-4.4-.92-6.39-5-6.39Zm0-3.22h3.73c3.72,0,5.13-2,5.13-5.56,0-3-1.42-5-4.76-5h-4.1Z"/><path class="cls-1" d="M533.47,264.09l-2.13,9.52H527.5L535,242.39h5l7.68,31.22h-4.07l-2.15-9.52Zm7.19-3.39c-1.69-7.34-2.81-12.13-3.25-14.71h-.11c-.42,2.75-1.64,8.19-3.1,14.71Z"/><path class="cls-1" d="M560.1,242.39h3.84v27.87H575l-.5,3.35H560.1Z"/><path class="cls-1" d="M601.42,258.83H591.08v11.41h11.51l-.51,3.37h-14.8V242.39h14.65v3.4H591.08v9.66h10.34Z"/><path class="cls-1" d="M618.13,265.3c.25,3.09,1.7,5.6,5,5.6s4.7-1.77,4.7-5.13c0-3.14-1.32-4.85-5.51-6.86-5-2.38-7.12-4.56-7.12-9.1s2.83-7.85,8-7.85c6.22,0,7.87,4.4,8,8.14h-3.78c-.16-1.57-.62-5-4.3-5-2.85,0-4.07,1.94-4.07,4.37,0,2.85,1.27,4.19,5.13,6,5.49,2.6,7.59,5.19,7.59,9.95,0,4.92-2.83,8.61-8.74,8.61-6.44,0-8.52-4.19-8.75-8.76Z"/></g></g></svg>