<svg xmlns="http://www.w3.org/2000/svg" viewBox="0 0 396.69 126.24"><defs><style>.cls-1{fill:#333;}.cls-2{font-size:97.83px;fill:#137cb5;font-family:Arlon-SemiBold, Arlon;font-weight:600;}.cls-3{letter-spacing:0em;}.cls-4{letter-spacing:0em;}.cls-5{letter-spacing:-0.04em;}</style></defs><g id="Capa_2" data-name="Capa 2"><g id="Capa_1-2" data-name="Capa 1"><path class="cls-1" d="M14.61,29.91A14.8,14.8,0,0,1,9.32,29a12.43,12.43,0,0,1-4.2-2.62,11.81,11.81,0,0,1-2.76-4,12.71,12.71,0,0,1-1-5,12.67,12.67,0,0,1,1-5,11.58,11.58,0,0,1,2.78-4A12.41,12.41,0,0,1,9.37,5.71a14.82,14.82,0,0,1,5.34-.92,15,15,0,0,1,5.8,1.07A11.49,11.49,0,0,1,24.81,9l-3.5,3.3a8.73,8.73,0,0,0-2.9-2.07A8.66,8.66,0,0,0,15,9.51a8.81,8.81,0,0,0-3.21.57A7.44,7.44,0,0,0,9.2,11.69a7.06,7.06,0,0,0-1.65,2.47A8.47,8.47,0,0,0,7,17.35a8.47,8.47,0,0,0,.57,3.14A7.17,7.17,0,0,0,9.2,23a7.61,7.61,0,0,0,2.51,1.63,8.65,8.65,0,0,0,3.21.57,10.09,10.09,0,0,0,3.26-.54,9,9,0,0,0,3.09-1.86l3.12,4a13.44,13.44,0,0,1-4.58,2.35A18,18,0,0,1,14.61,29.91Zm4.75-3.82V17h5v9.81Z" transform="translate(0 -4.79)"/><path class="cls-1" d="M29.63,29.49V5.2H40.11a14.06,14.06,0,0,1,5.66,1,8.16,8.16,0,0,1,3.64,3A8.62,8.62,0,0,1,50.69,14a8.2,8.2,0,0,1-1.28,4.61,8.28,8.28,0,0,1-3.64,3,13.71,13.71,0,0,1-5.66,1.06H32.75l2.47-2.39v9.19Zm5.59-8.6-2.47-2.64h7.08a5.9,5.9,0,0,0,3.94-1.13,3.88,3.88,0,0,0,1.3-3.1,4,4,0,0,0-1.3-3.2,6,6,0,0,0-3.94-1.11H32.75l2.47-2.63Zm9.92,8.6L39,20.68H45l6.14,8.81Z" transform="translate(0 -4.79)"/><path class="cls-1" d="M65.92,29.91q-5.13,0-8.06-2.88c-2-1.92-2.93-4.66-2.93-8.23V5.2h5.58V18.6c0,2.33.48,4,1.42,5a6.06,6.06,0,0,0,8.07,0c1-1,1.44-2.72,1.44-5V5.2h5.45V18.8q0,5.36-2.9,8.23T65.92,29.91Z" transform="translate(0 -4.79)"/><path class="cls-1" d="M82.47,29.49V5.2H93a14.06,14.06,0,0,1,5.66,1,8.11,8.11,0,0,1,3.64,3A8.53,8.53,0,0,1,103.53,14a8.32,8.32,0,0,1-1.28,4.65,8.38,8.38,0,0,1-3.64,3A13.55,13.55,0,0,1,93,22.79H85.6l2.46-2.49v9.19Zm5.59-8.6L85.6,18.25h7.07a5.88,5.88,0,0,0,3.94-1.13,3.88,3.88,0,0,0,1.3-3.1,4,4,0,0,0-1.3-3.2,5.94,5.94,0,0,0-3.94-1.11H85.6l2.46-2.63Z" transform="translate(0 -4.79)"/><path class="cls-1" d="M119.63,29.91a14.53,14.53,0,0,1-5.31-.94,12.37,12.37,0,0,1-7-6.64,12.46,12.46,0,0,1-1-5,12.37,12.37,0,0,1,1-5,12.13,12.13,0,0,1,2.78-4,12.8,12.8,0,0,1,4.2-2.64,15.59,15.59,0,0,1,10.58,0,12.28,12.28,0,0,1,4.2,2.62,12,12,0,0,1,2.77,4,12.42,12.42,0,0,1,1,5,12.51,12.51,0,0,1-1,5,12.22,12.22,0,0,1-7,6.65A14.72,14.72,0,0,1,119.63,29.91Zm0-4.72a7.71,7.71,0,0,0,3-.57A7.51,7.51,0,0,0,125.05,23a7.59,7.59,0,0,0,1.63-2.48,8.36,8.36,0,0,0,.59-3.17,8.23,8.23,0,0,0-.58-3.16,7.42,7.42,0,0,0-4.07-4.11,7.88,7.88,0,0,0-3-.57,8,8,0,0,0-3,.57,7.12,7.12,0,0,0-2.44,1.63,7.4,7.4,0,0,0-1.62,2.48,8.33,8.33,0,0,0-.57,3.12,8.57,8.57,0,0,0,.57,3.18,7.32,7.32,0,0,0,4.06,4.13A8.1,8.1,0,0,0,119.63,25.19Z" transform="translate(0 -4.79)"/><text class="cls-2" transform="translate(0 101.35)">M<tspan class="cls-3" x="85.13" y="0">A</tspan><tspan class="cls-4" x="152.92" y="0">R</tspan><tspan class="cls-5" x="215.83" y="0">K</tspan><tspan x="275.5" y="0">I</tspan><tspan class="cls-5" x="306.26" y="0">K</tspan><tspan x="365.93" y="0">I</tspan></text></g></g></svg>