<svg xmlns="http://www.w3.org/2000/svg" xmlns:xlink="http://www.w3.org/1999/xlink" viewBox="0 0 318.55 111.57"><defs><style>.cls-1,.cls-2{opacity:0.86;}.cls-1{fill:url(#Degradado_sin_nombre_45);}.cls-2{fill:url(#Degradado_sin_nombre_45-2);}.cls-3{fill:#4f4f4f;}</style><linearGradient id="Degradado_sin_nombre_45" y1="55.78" x2="96.12" y2="55.78" gradientUnits="userSpaceOnUse"><stop offset="0" stop-color="#3d90c1"/><stop offset="1" stop-color="#52a475"/></linearGradient><linearGradient id="Degradado_sin_nombre_45-2" x1="19.31" y1="55.8" x2="76.81" y2="55.8" xlink:href="#Degradado_sin_nombre_45"/></defs><g id="Capa_2" data-name="Capa 2"><g id="Capa_1-2" data-name="Capa 1"><path class="cls-1" d="M47.66,111.57,0,84.81V28.43L47.66,0,96.12,29.24V84.41ZM3.78,82.6l43.88,24.64,44.69-25V31.37l-44.7-27L3.78,30.58Z"/><polygon class="cls-2" points="55.41 20.19 19.31 50.21 21.87 67.46 41.67 67.46 58.55 52.84 64.19 52.84 65.39 55.26 41.99 74.81 39.44 91.42 76.81 59.16 71.7 43.5 56.59 42.38 37.84 58.2 30.81 58.2 30.81 55.8 55.73 35.2 55.41 20.19"/><path class="cls-3" d="M111.32,44.83h6.09a3.74,3.74,0,0,0,2-.33,1.69,1.69,0,0,0,.83-1.57,1.8,1.8,0,0,0-1-1.76,5.51,5.51,0,0,0-1.86-.2h-1.78a5.66,5.66,0,0,1-3.39-.75,3.56,3.56,0,0,1-1.42-3,4,4,0,0,1,2-3.62,7.58,7.58,0,0,1,3.29-.49h6.19v2.06H116.4a5.29,5.29,0,0,0-2.05.27A1.7,1.7,0,0,0,113.5,37c0,1.26.77,1.76,2.77,1.76h1.47c2.13,0,3.18.22,4,.89A4.16,4.16,0,0,1,123,42.89a3.8,3.8,0,0,1-1.79,3.43c-.75.45-1.59.57-3.64.57h-6.23Z"/><path class="cls-3" d="M146.76,40.12c0,4.54-2.3,6.92-6.67,6.92-2.44,0-4.36-.77-5.41-2.13a8.07,8.07,0,0,1-1.37-4.85A7.52,7.52,0,0,1,135,34.75,6.89,6.89,0,0,1,140.11,33C144.61,33,146.76,35.29,146.76,40.12ZM136.06,40c0,3.54,1.22,5.09,4,5.09s4-1.53,4-5-1.2-5.08-3.9-5.08S136.06,36.53,136.06,40Z"/><path class="cls-3" d="M160.31,33.12V41c0,1.94.18,2.56.66,3a4.25,4.25,0,0,0,3,.79h2.89v2.06h-3.26c-2.48,0-3.34-.24-4.5-1.24-1-.92-1.3-2-1.32-4.5v-8Z"/><path class="cls-3" d="M179.47,41.34a3.83,3.83,0,0,0,.66,2.7,3.57,3.57,0,0,0,2.75,1,3.44,3.44,0,0,0,3-1.28,5.17,5.17,0,0,0,.37-2.54V33.12h2.52v8.05c0,2.36-.33,3.47-1.26,4.36a6.72,6.72,0,0,1-4.83,1.53c-2.15,0-3.68-.56-4.67-1.69-.81-.93-1.1-2-1.1-4V33.12h2.52Z"/><path class="cls-3" d="M211,46.89h-4.5c-2.34,0-3.68-.37-4.71-1.34a7.43,7.43,0,0,1-1.92-5.47c0-2.77,1-5.06,2.6-6.09a7.83,7.83,0,0,1,4-.87H211v2.06h-4.3c-1.57,0-2.5.31-3.11,1a6.25,6.25,0,0,0-1,3.78,5.7,5.7,0,0,0,1.18,3.94,4,4,0,0,0,3.06.89H211Z"/><path class="cls-3" d="M222.14,33.12h2.52V46.89h-2.52Z"/><path class="cls-3" d="M249.3,40.12c0,4.54-2.29,6.92-6.67,6.92-2.43,0-4.36-.77-5.41-2.13a8.07,8.07,0,0,1-1.36-4.85,7.56,7.56,0,0,1,1.71-5.31A6.91,6.91,0,0,1,242.65,33C247.15,33,249.3,35.29,249.3,40.12ZM238.61,40c0,3.54,1.21,5.09,4,5.09s4-1.53,4-5S245.36,35,242.65,35,238.61,36.53,238.61,40Z"/><path class="cls-3" d="M262.94,46.89H260.5V33.12h3.14L270,43.8V33.12h2.43V46.89h-3L262.94,36.3Z"/><path class="cls-3" d="M294.41,35.18h-3.92c-2.79-.06-4,1-4.09,3.78h8V41h-8c.12,2.64,1.38,3.82,4.09,3.8h3.92v2.06H290.2c-2.46,0-3.95-.47-5-1.61a7.34,7.34,0,0,1-1.67-5.18,7.19,7.19,0,0,1,2.25-5.78c1-.85,2.21-1.2,4.23-1.2h4.36Z"/><path class="cls-3" d="M305.36,44.83h6.09a3.74,3.74,0,0,0,2-.33,1.69,1.69,0,0,0,.83-1.57,1.8,1.8,0,0,0-1-1.76,5.47,5.47,0,0,0-1.86-.2h-1.78a5.61,5.61,0,0,1-3.38-.75,3.56,3.56,0,0,1-1.43-3,4,4,0,0,1,2.05-3.62,7.5,7.5,0,0,1,3.28-.49h6.19v2.06h-5.88a5.33,5.33,0,0,0-2.05.27,1.69,1.69,0,0,0-.84,1.57c0,1.26.76,1.76,2.77,1.76h1.46c2.13,0,3.18.22,4,.89A4.19,4.19,0,0,1,317,42.89a3.79,3.79,0,0,1-1.8,3.43c-.74.45-1.59.57-3.63.57h-6.24Z"/><path class="cls-3" d="M124.49,62H119c-3.92-.09-5.6,1.45-5.75,5.32h11.27v2.9H113.22c.17,3.72,2,5.38,5.75,5.35h5.52v2.9h-5.92c-3.46,0-5.55-.66-7-2.26-1.59-1.75-2.35-4.13-2.35-7.29,0-3.61,1.05-6.31,3.17-8.14,1.36-1.19,3.11-1.68,6-1.68h6.13Z"/><path class="cls-3" d="M131.14,59.09V70.18c.06,2.73.27,3.61.93,4.27s2.21,1.14,4.25,1.11h4.06v2.9h-4.59c-3.48,0-4.7-.34-6.33-1.74-1.37-1.31-1.83-2.85-1.86-6.33V59.09Z"/><path class="cls-3" d="M156.85,62h-5.52c-3.92-.09-5.6,1.45-5.75,5.32h11.27v2.9H145.58c.18,3.72,1.95,5.38,5.75,5.35h5.52v2.9h-5.92c-3.46,0-5.55-.66-7-2.26-1.6-1.75-2.36-4.13-2.36-7.29,0-3.61,1.05-6.31,3.17-8.14,1.36-1.19,3.11-1.68,5.95-1.68h6.13Z"/><path class="cls-3" d="M174.6,78.46h-6.33c-3.28,0-5.17-.52-6.62-1.88-1.72-1.6-2.71-4.39-2.71-7.7,0-3.9,1.4-7.12,3.67-8.57a10.94,10.94,0,0,1,5.63-1.22h6.36V62h-6c-2.21,0-3.51.44-4.39,1.45a8.89,8.89,0,0,0-1.36,5.32c0,2.5.61,4.5,1.65,5.55.93.9,2.13,1.25,4.3,1.25h5.84Z"/><path class="cls-3" d="M176.08,62v-2.9h16.59V62h-6.56V78.46h-3.55V62Z"/><path class="cls-3" d="M198.25,78.46h-3.54V59.09h9.09c2.73,0,4.41.32,5.49,1a5.14,5.14,0,0,1,2.21,4.36,5.75,5.75,0,0,1-1.51,4,5.36,5.36,0,0,1-2.36,1.28c2.41.84,3.37,2.41,3.55,5.69.14,2.06.17,2.24.49,3h-3.83a3.87,3.87,0,0,1-.24-.84c0-.17,0-.52-.08-1l-.09-.92c-.35-3.81-1.86-5.09-6-5.06h-3.19Zm5.64-10.75a4.54,4.54,0,0,0,2.7-.52,2.75,2.75,0,0,0,1-2.38,2.59,2.59,0,0,0-1.3-2.5,5.55,5.55,0,0,0-2.44-.32h-5.64v5.72Z"/><path class="cls-3" d="M232.5,68.94c0,6.39-3.22,9.73-9.38,9.73-3.43,0-6.13-1.08-7.62-3a11.43,11.43,0,0,1-1.91-6.83c0-3.23.87-5.93,2.41-7.47a9.8,9.8,0,0,1,7.15-2.5C229.48,58.88,232.5,62.14,232.5,68.94Zm-15.05-.24c0,5,1.71,7.15,5.61,7.15s5.58-2.15,5.58-7S227,61.7,223.15,61.7C219.19,61.7,217.45,63.88,217.45,68.7Zm6-11.15h-2.32L223.81,54h3.34Z"/><path class="cls-3" d="M239,78.46h-3.43V59.09h4.42l8.89,15v-15h3.42V78.46H248l-9-14.9Z"/><path class="cls-3" d="M256.32,59.09h3.54V78.46h-3.54Z"/><path class="cls-3" d="M278.54,78.46h-6.33c-3.28,0-5.17-.52-6.62-1.88-1.72-1.6-2.71-4.39-2.71-7.7,0-3.9,1.4-7.12,3.67-8.57a10.94,10.94,0,0,1,5.63-1.22h6.36V62h-6c-2.21,0-3.51.44-4.39,1.45a8.89,8.89,0,0,0-1.36,5.32c0,2.5.61,4.5,1.65,5.55.93.9,2.12,1.25,4.3,1.25h5.84Z"/><path class="cls-3" d="M288,59.09h4.39l7.84,19.37h-4l-1.91-4.79H286l-2,4.79h-4Zm-1.13,11.68h6.48l-3.2-8.31Z"/><path class="cls-3" d="M302.13,75.56h8.57a5.29,5.29,0,0,0,2.82-.47,2.38,2.38,0,0,0,1.16-2.2,2.51,2.51,0,0,0-1.45-2.47,7.31,7.31,0,0,0-2.62-.29h-2.49c-2.3,0-3.78-.32-4.77-1a5,5,0,0,1-2-4.21,5.58,5.58,0,0,1,2.87-5.09,10.65,10.65,0,0,1,4.62-.69h8.72V62h-8.28a7.3,7.3,0,0,0-2.88.38,2.37,2.37,0,0,0-1.19,2.21c0,1.77,1.08,2.47,3.89,2.47h2.07c3,0,4.47.32,5.57,1.25a5.85,5.85,0,0,1,1.81,4.53A5.31,5.31,0,0,1,316,77.65c-1,.64-2.24.81-5.12.81h-8.77Z"/></g></g></svg>