<svg xmlns="http://www.w3.org/2000/svg" xmlns:xlink="http://www.w3.org/1999/xlink" viewBox="0 0 372.25 135.78"><defs><style>.cls-1{fill:url(#Degradado_sin_nombre_2);}.cls-2{fill:url(#Degradado_sin_nombre_2-2);}.cls-3{fill:url(#Degradado_sin_nombre_31);}.cls-4{fill:url(#Degradado_sin_nombre_2-3);}.cls-5{fill:url(#Degradado_sin_nombre_2-4);}.cls-6{fill:url(#Degradado_sin_nombre_2-5);}.cls-7{fill:url(#Degradado_sin_nombre_2-6);}.cls-8{fill:url(#Degradado_sin_nombre_2-7);}.cls-9{fill:url(#Degradado_sin_nombre_2-8);}.cls-10{fill:url(#Degradado_sin_nombre_2-9);}.cls-11{fill:url(#Degradado_sin_nombre_2-10);}.cls-12{fill:#4d4d4d;}.cls-13{fill:url(#Degradado_sin_nombre_25);}.cls-14{fill:url(#Degradado_sin_nombre_25-2);}.cls-15{fill:url(#Degradado_sin_nombre_31-2);}</style><linearGradient id="Degradado_sin_nombre_2" x1="335.67" y1="61.8" x2="373.98" y2="61.8" gradientTransform="translate(-1.55 -4.54) rotate(0.14)" gradientUnits="userSpaceOnUse"><stop offset="0" stop-color="#a41a78"/><stop offset="0.33" stop-color="#8f217d"/><stop offset="0.73" stop-color="#7c2781"/><stop offset="1" stop-color="#752982"/></linearGradient><linearGradient id="Degradado_sin_nombre_2-2" x1="187.35" y1="70.57" x2="225.65" y2="70.57" xlink:href="#Degradado_sin_nombre_2"/><linearGradient id="Degradado_sin_nombre_31" x1="1.73" y1="72.26" x2="137.33" y2="72.26" gradientTransform="translate(-1.55 -4.54) rotate(0.14)" gradientUnits="userSpaceOnUse"><stop offset="0" stop-color="#e20c5b"/><stop offset="0.05" stop-color="#d90e5e"/><stop offset="0.35" stop-color="#ae1a6e"/><stop offset="0.62" stop-color="#8f2279"/><stop offset="0.84" stop-color="#7c2780"/><stop offset="1" stop-color="#752982"/></linearGradient><linearGradient id="Degradado_sin_nombre_2-3" x1="286.14" y1="69.59" x2="324.84" y2="69.59" xlink:href="#Degradado_sin_nombre_2"/><linearGradient id="Degradado_sin_nombre_2-4" x1="236.51" y1="69.97" x2="274.8" y2="69.97" xlink:href="#Degradado_sin_nombre_2"/><linearGradient id="Degradado_sin_nombre_2-5" x1="149.35" y1="70.98" x2="176.85" y2="70.98" xlink:href="#Degradado_sin_nombre_2"/><linearGradient id="Degradado_sin_nombre_2-6" x1="154.71" y1="114.88" x2="182.1" y2="114.88" xlink:href="#Degradado_sin_nombre_2"/><linearGradient id="Degradado_sin_nombre_2-7" x1="187.85" y1="114.41" x2="213.41" y2="114.41" xlink:href="#Degradado_sin_nombre_2"/><linearGradient id="Degradado_sin_nombre_2-8" x1="276.22" y1="113.47" x2="302.15" y2="113.47" xlink:href="#Degradado_sin_nombre_2"/><linearGradient id="Degradado_sin_nombre_2-9" x1="217.05" y1="114.06" x2="247.23" y2="114.06" xlink:href="#Degradado_sin_nombre_2"/><linearGradient id="Degradado_sin_nombre_2-10" x1="244.97" y1="114" x2="272.66" y2="114" xlink:href="#Degradado_sin_nombre_2"/><linearGradient id="Degradado_sin_nombre_25" x1="322.67" y1="25.66" x2="326.76" y2="25.66" gradientTransform="translate(-1.55 -4.54) rotate(0.14)" gradientUnits="userSpaceOnUse"><stop offset="0" stop-color="aqua"/><stop offset="0.05" stop-color="#00f7fa"/><stop offset="0.7" stop-color="#01a2c7"/><stop offset="1" stop-color="#0280b2"/></linearGradient><linearGradient id="Degradado_sin_nombre_25-2" x1="273.78" y1="25.9" x2="276.74" y2="25.9" xlink:href="#Degradado_sin_nombre_25"/><linearGradient id="Degradado_sin_nombre_31-2" x1="7.28" y1="72.3" x2="131.72" y2="72.3" xlink:href="#Degradado_sin_nombre_31"/></defs><g id="Capa_2" data-name="Capa 2"><g id="Capa_1-2" data-name="Capa 1"><path class="cls-1" d="M364.78,49.66c0-4,0-7.73,0-11.45a16.19,16.19,0,0,1,.15-3.42,3.72,3.72,0,0,1,4.11-2.89A3.52,3.52,0,0,1,372,35.5c.12,4.35.16,8.7.19,13,0,5.78,0,11.55.05,17.33.11,10.1-9.08,18.39-18.44,18.58-9.81.19-18.54-6.93-19.71-16.69a19.08,19.08,0,0,1,14.65-21.1A18.28,18.28,0,0,1,363.35,49,11,11,0,0,0,364.78,49.66Zm.27,15.77A12,12,0,0,0,353.3,53.32a12,12,0,0,0-.15,24.06A12,12,0,0,0,365.05,65.43Z"/><path class="cls-2" d="M205.05,47.39a19.16,19.16,0,0,1-.52,38.32,19.16,19.16,0,0,1,.52-38.32Zm-.34,31.25a12.13,12.13,0,0,0,12-11.87A12.35,12.35,0,0,0,205,54.52c-6.94-.12-12,5.31-12,13.45C193,72.86,197.8,78.38,204.71,78.64Z"/><path class="cls-3" d="M67.57,135.78C30.84,136-.11,105.4,0,67.68.11,30.51,30.56-.29,68,0A67.81,67.81,0,0,1,135.4,62.75c1.47,20.64-5.26,38.76-20.08,53.45C102.16,129.23,86.14,135.71,67.57,135.78Zm-.09-1.32c37.28.12,69.07-31.37,66.62-70.88A66.79,66.79,0,0,0,69.45,1.39C32.09.44,2.43,30.77,1.45,66,.44,102.3,29.39,134.12,67.48,134.46Z"/><path class="cls-4" d="M323.09,72.22c0,2.78,0,5.57,0,8.35,0,2.58-1.39,4.12-3.51,4.09-2.44,0-3.67-1.34-3.72-4.09-.09-4.75-.22-9.5-.17-14.25.07-6.93-4.81-12.27-11.52-12.46A12,12,0,0,0,291.81,65.8c-.07,5.09.09,10.19.15,15.28A3.67,3.67,0,0,1,289.3,85a3.21,3.21,0,0,1-3.87-1.53,8,8,0,0,1-.85-3.5c-.07-5.43-.42-10.91.12-16.29.82-8.28,6.9-14.67,15.09-16.71,11.85-3,23.66,7.45,23,19-.11,2.09,0,4.2,0,6.31Z"/><path class="cls-5" d="M265.93,59c0-2.92,0-5.84,0-8.76a3.56,3.56,0,0,1,3.31-3.45,3.3,3.3,0,0,1,3.64,3c.08,6.71.44,13.47-.2,20.13-.69,7.24-7.16,13.16-14.4,14.9-10.89,2.62-21.82-5.45-23-15.43-.31-2.6-.33-5.24-.39-7.86q-.12-5.3-.08-10.59c0-1.86.77-3.33,2.8-3.73a3.21,3.21,0,0,1,4,2,4.81,4.81,0,0,1,.3,1.77c.11,5.16.19,10.32.29,15.48.12,6.29,5,11.21,11.56,11.73,5.31.41,11.09-4,11.94-9.66.47-3.12.1-6.37.1-9.55Z"/><path class="cls-6" d="M161.72,86c-7,0-12.08-3.32-13.8-9.2a5,5,0,0,1,0-3.5c.6-1,2.13-2.25,3.09-2.12a5,5,0,0,1,3.28,2.52c1.12,2.42,2.38,4.63,5.14,5a17,17,0,0,0,6.13-.57A3.37,3.37,0,0,0,168,74.38a3.71,3.71,0,0,0-2.55-3.59,13,13,0,0,0-4.16-.82,11.61,11.61,0,0,1-11.75-9.23c-1.43-7,3.77-12.36,10.22-12.91,4.17-.35,8.17.31,11.24,3.54a7.77,7.77,0,0,1,1.77,2.69,3.26,3.26,0,0,1-1.52,4.21,3.4,3.4,0,0,1-4.58-.89,6.2,6.2,0,0,0-6.92-2.15c-1.78.46-3.13,1.35-3.15,3.43a3.82,3.82,0,0,0,3.16,3.74,34.42,34.42,0,0,0,4.43.59c8.72.82,13.65,9.83,9.42,17.23C171.43,84,167.26,86,161.72,86Z"/><path class="cls-7" d="M174,109.61c.56.29.85.45,1.14.59,4.07,2,5.55,4.7,5,9.23a8.61,8.61,0,0,1-7.24,7.07c-3.69.48-7.44.46-11.17.6-1.7.06-3.41,0-5.1,0-2.47-.1-3.4-1-3.46-3.56,0-2.25,0-4.49,0-6.73-.07-6-.13-12-.24-17.93-.06-3.43,1.18-4.63,4.21-4.51,4.68.19,9.38-.15,14,.15a7.57,7.57,0,0,1,7.32,6.29c.68,3.38-.71,6-3.5,8C174.7,109,174.46,109.2,174,109.61Zm-9.32,12.68h0c.95,0,1.91.06,2.85,0a13.76,13.76,0,0,0,2.8-.46,4.61,4.61,0,0,0,3.49-4.88,4.41,4.41,0,0,0-4-4.25,19.28,19.28,0,0,0-4.66-.39c-6.92.49-5.88-1.44-5.85,6.15,0,3.89.13,3.88,3.91,3.85C163.69,122.28,164.17,122.29,164.65,122.29Zm-5-23.19,0,9c3-.17,5.85-.22,8.68-.52a4.46,4.46,0,0,0,4-4.61c-.1-2.18-1.66-3.67-4.25-3.79C165.35,99,162.57,99.11,159.69,99.1Z"/><path class="cls-8" d="M201.61,121.67c2.31,0,4.63,0,6.95,0,2.1,0,3,.8,3,2.5,0,2-1.28,2.47-3,2.49-5.78.08-11.56.24-17.34.3-3.62,0-4.55-1-4.63-4.59-.15-6.79-.37-13.57-.52-20.36a34.29,34.29,0,0,1,.21-5.07,2.92,2.92,0,0,1,2.93-2.84c6.19-.14,12.39-.3,18.58-.37,1.59,0,3,.49,3,2.54s-1.45,2.54-3,2.55c-4.28,0-8.57-.14-12.86-.17-2.21,0-2.48.36-2.31,2.5a34.52,34.52,0,0,1,.13,4.07c0,1.51.6,2,2.07,2,3.95,0,7.9,0,11.85,0,1.59,0,2.95.29,3,2.23s-1.27,2.44-3,2.45c-3.88,0-7.76.15-11.64.13-1.52,0-2,.54-2,2,.07,2-.09,3.93-.21,5.9-.07,1.27.36,1.9,1.72,1.88,2.39,0,4.77,0,7.15,0Z"/><path class="cls-9" d="M287.59,92.69a12.15,12.15,0,0,1,7.87,2.2c1.91,1.36,3.41,3.15,3.08,5.6a4.3,4.3,0,0,1-2.06,2.86c-.59.3-1.93-.69-2.8-1.29-.46-.31-.66-1-1-1.53A7.29,7.29,0,0,0,282.82,98c-2.89,1.72-3,4.69,0,6.16a45.56,45.56,0,0,0,6.55,2.12c1.81.57,3.65,1.06,5.42,1.73,7.48,2.84,6.48,12.41,1.89,15.93s-13.52,3.73-18.11.42c-2.43-1.75-4.22-4-4.23-7.26,0-1.39.64-2.45,1.84-2.52a5.12,5.12,0,0,1,3.14,1.16c.68.52.9,1.63,1.31,2.49,2.38,5.06,8.86,4.43,11.58,2.18a4.18,4.18,0,0,0-1-7.3c-2.67-1.1-5.61-1.56-8.35-2.52a18.08,18.08,0,0,1-5.24-2.6,8.09,8.09,0,0,1,.89-13.16C281.24,93.06,284.24,92.62,287.59,92.69Z"/><path class="cls-10" d="M215.19,123.39c.39-1.21.9-3.11,1.59-4.94q4.14-10.82,8.36-21.6c1-2.6,2.59-3.91,4.72-3.82,2.4.11,3.77,1.53,4.65,3.68,3.31,8.1,6.69,16.18,10,24.28a18.91,18.91,0,0,1,.69,2.13c.53,1.87-.45,3-2,3.73s-2.8-.16-3.49-1.53c-.89-1.75-1.47-3.66-2.39-5.39a2.69,2.69,0,0,0-1.88-1.32c-3.54-.08-7.08.07-10.61,0a2.11,2.11,0,0,0-2.38,1.68c-.55,1.74-1.3,3.42-2,5.13s-1.89,1.89-3.34,1.54S215.1,125.57,215.19,123.39Zm14.91-22.93-.7.08c-1.4,4-2.82,8-4.14,12.08-.09.28.55,1.14.87,1.15,2.84.1,5.68.07,9,.07C233.35,109.11,231.72,104.79,230.1,100.46Z"/><path class="cls-11" d="M257.38,93.4c3.47,0,6.94,0,10.41,0,2.23,0,3.16.84,3.06,2.6-.11,1.94-1.37,2.44-3.08,2.43s-3.67.17-5.5.09c-1.59-.06-2.15.5-2.12,2.11.15,7.06.2,14.11.27,21.17a11.1,11.1,0,0,1-.14,2.23c-.3,1.6-1,2.74-2.95,2.74a2.88,2.88,0,0,1-3.12-2.82,43.32,43.32,0,0,1-.4-5.46q0-9,.09-17.91c0-1.42-.53-2-1.91-1.91-1.83.05-3.67,0-5.5,0-2.13,0-3.25-.93-3.31-2.51s1.06-2.63,3.19-2.68c3.67-.09,7.34,0,11,0Z"/><path class="cls-12" d="M168.22,27.09c-.33,1.05-.71,2.08-1,3.15-.68,2.76-1.29,5.53-2,8.3-.31,1.26-.65,2.63-2.28,2.71s-2.07-1.25-2.41-2.54q-1.15-4.44-2.32-8.86c-.2-.77-.44-1.52-.66-2.28l-.54,0c0,2.55,0,5.11,0,7.67a18.88,18.88,0,0,1,.06,4c-.16.75-1.24,1.3-1.9,1.94-.5-.69-1.41-1.38-1.43-2.09-.14-4.89-.08-9.78-.09-14.67,0-1.23.13-2.47,1.7-2.49s3.54-.73,4.17,1.72,1.41,5.09,2.12,7.64c.27,1,.56,1.9,1,3.42a16.2,16.2,0,0,0,.82-1.84c.83-3.07,1.68-6.15,2.43-9.24.61-2.53,2.58-1.69,4.14-1.74s1.71,1.24,1.73,2.43q.12,6.83.22,13.64c0,.48.15,1.07-.08,1.41a12.64,12.64,0,0,1-1.64,1.72c-.49-.62-1.37-1.23-1.4-1.87-.16-3.32-.11-6.66-.13-10,0-.71,0-1.42,0-2.13Z"/><path class="cls-12" d="M247.25,31.63c1.88-1.78,3.31-3.1,4.69-4.47.79-.77,1.72-1.5,2.55-.47.33.41,0,1.79-.52,2.37-2.17,2.56-2.23,2.52-.36,5.39.62,1,1.26,1.94,1.87,2.92s1.19,2.08-.13,2.8-2-.21-2.61-1.23c-.76-1.28-1.55-2.55-2.35-3.8-.25-.39-.57-.74-.91-1.17a3.09,3.09,0,0,0-2.22,3.28,2.89,2.89,0,0,1,0,1.41,15,15,0,0,1-1.45,1.86c-.56-.58-1.51-1.11-1.59-1.75a67.25,67.25,0,0,1-.37-7.1c0-2.85,0-5.71.18-8.54.06-.77,1-1.46,1.53-2.19.59.7,1.62,1.36,1.67,2.1C247.39,25.72,247.26,28.42,247.25,31.63Z"/><path class="cls-12" d="M296.94,31a54.69,54.69,0,0,1,4.1-4.1c.62-.51,2.06-.92,2.53-.57,1.16.86.13,1.79-.55,2.51-2.17,2.32-2.18,2.31-.51,4.91.7,1.08,1.42,2.15,2.1,3.24s1.17,2-.12,2.82-2-.28-2.61-1.19c-1.07-1.64-2.08-3.32-3.16-5.06-1.66.77-2.67,1.74-2.24,3.64a2,2,0,0,1-.1,1.38c-.41.58-1.05,1.39-1.59,1.39s-1.08-.89-1.52-1.46c-.17-.22-.06-.66-.07-1,0-4.48-.09-8.95-.12-13.43a4.52,4.52,0,0,1,.15-2c.32-.62,1-1,1.59-1.53.49.56,1.35,1.07,1.41,1.67.19,2.15.12,4.33.14,6.5,0,.67,0,1.33,0,2Z"/><path class="cls-12" d="M199.13,39.51a43.88,43.88,0,0,1-6.28,1.41,4.09,4.09,0,0,1-4.17-3.48c-.21-1.47,1.3-3.42,3.21-4,1.62-.47,3.31-.73,4.92-1.23.54-.17,1.38-.85,1.33-1.18A3,3,0,0,0,197,29.14c-1.4-.9-3.29-.2-4.69,1.22a6.5,6.5,0,0,1-2.29.95c.06-.91-.19-2,.24-2.69,1.28-2,5.41-2.69,8.47-1.63,2.11.73,2.75,2,2.83,5,.06,2.16.37,4.31.47,6.46a9.65,9.65,0,0,1-.4,2.16,12.4,12.4,0,0,1-2.11-.58C199.21,39.92,199.07,39.41,199.13,39.51Zm-.77-5.72a36.79,36.79,0,0,0-5,1.42,2.41,2.41,0,0,0-1,2.06,2.54,2.54,0,0,0,1.85,1.43C197.1,39.1,198.51,37.55,198.36,33.79Z"/><path class="cls-12" d="M222.87,27.79c1-1,2.45-2,4.23-1,.62.33.91,1.26,1.36,1.92-.67.25-1.37.78-2,.7-2.47-.34-3.46.15-3.83,2.65a59.48,59.48,0,0,0-.3,6.28c0,1.11,0,2.34-1.57,2.32s-1.58-1.23-1.62-2.35c-.1-3-.29-5.95-.21-8.92a4,4,0,0,1,1.29-2.66C220.55,26.45,221.81,27.33,222.87,27.79Z"/><path class="cls-12" d="M275.42,33.14a44.07,44.07,0,0,1-.08,5.27c-.08.68-.91,1.27-1.4,1.9-.65-.58-1.83-1.15-1.85-1.75-.11-3.71,0-7.44.17-11.15,0-.53.9-1,1.38-1.51.55.58,1.5,1.12,1.58,1.77a43.21,43.21,0,0,1,.06,5.46Z"/><path class="cls-12" d="M324.52,32.91a41,41,0,0,1-.08,5.08c-.08.68-.9,1.27-1.38,1.9-.59-.6-1.65-1.17-1.7-1.81a102.69,102.69,0,0,1-.24-10.38c0-.7,1.11-1.37,1.71-2.05.55.72,1.46,1.38,1.58,2.17a36,36,0,0,1,.06,5.09Z"/><path class="cls-13" d="M325.15,22.08c-1.1.69-1.78,1.46-2.29,1.36-.67-.12-1.21-.93-1.81-1.45.59-.56,1.12-1.5,1.76-1.58S324.05,21.25,325.15,22.08Z"/><path class="cls-14" d="M273.69,20.14c.73,1.06,1.49,1.68,1.43,2.21s-.89,1.08-1.38,1.61c-.55-.54-1.42-1-1.57-1.63C272.07,21.87,272.92,21.2,273.69,20.14Z"/><path class="cls-15" d="M67.87,5.55c35,0,59.2,27.71,61.8,55.77,1.91,20.59-4.7,38.09-19.62,52.29a59.26,59.26,0,0,1-42.19,16.7c-36.33-.08-62.42-29.95-62.31-62.62C5.66,33.9,33.46,5.19,67.87,5.55Zm4.8,32.54c-.52-.58-.83-.94-1.16-1.28a18.13,18.13,0,0,0-26.4.21A20.45,20.45,0,0,0,40,50.86c-.14,11.22-.1,22.44-.14,33.66v2.3c-.3.12-.36.18-.42.17-.54,0-1.08,0-1.61-.09-3.8-.24-7.35.43-10.32,3-4.2,3.59-4.19,9.21.06,12.73a13.32,13.32,0,0,0,11.52,2.73c6.39-1.24,9.47-5,9.49-11.48,0-13.8,0-27.61.14-41.41a20.26,20.26,0,0,1,.88-5.79C51,42.15,54,40,58.48,40.05S66,42.33,67.3,46.82a22.84,22.84,0,0,1,.83,5.81c.09,5.44,0,10.88,0,16.32,0,2.91,1.78,4.81,4.39,4.85S76.87,72,76.89,69c0-4.83,0-9.66,0-14.48a45.61,45.61,0,0,1,.41-5.48c.79-5.57,4.2-8.86,9.15-8.94,5.24-.09,8.7,2.9,9.75,8.52a21.94,21.94,0,0,1,.36,4.05c0,8.43,0,16.86,0,25.29,0,.6-.07,1.19-.1,1.71-.21.09-.27.14-.32.13-.54,0-1.08-.12-1.62-.15-3.88-.23-7.46.57-10.42,3.25a7.89,7.89,0,0,0-.46,11.77c3.34,3.54,9.82,4.75,14.83,2.77,4.84-1.91,6.9-5.18,6.92-11.07,0-10.27.08-20.54.06-30.8a67.58,67.58,0,0,0-.37-7.11c-1.16-10.74-9.16-17.72-19.66-17.09A17.21,17.21,0,0,0,72.67,38.09Z"/></g></g></svg>