<svg xmlns="http://www.w3.org/2000/svg" viewBox="0 0 606.22 221.12"><defs><style>.cls-1{fill:#fff;}</style></defs><g id="Capa_2" data-name="Capa 2"><g id="Capa_1-2" data-name="Capa 1"><path class="cls-1" d="M594.05,80.87c0-6.51,0-12.58.05-18.64a25.84,25.84,0,0,1,.24-5.58A6.06,6.06,0,0,1,601,52c2.6.28,4.71,2.66,4.79,5.87.2,7.08.27,14.16.31,21.24.06,9.41,0,18.82.09,28.23.18,16.45-14.79,30-30,30.25-16,.32-30.19-11.29-32.1-27.18-2-16.78,8.66-30.64,23.86-34.35a29.71,29.71,0,0,1,23.76,3.85A18.64,18.64,0,0,0,594.05,80.87Zm.44,25.69a19.58,19.58,0,0,0-19.14-19.73,19.6,19.6,0,0,0-.24,39.19A19.54,19.54,0,0,0,594.49,106.56Z"/><path class="cls-1" d="M333.92,77.17a31.21,31.21,0,0,1-.84,62.41,31.21,31.21,0,1,1,.84-62.41Zm-.55,50.9A19.76,19.76,0,0,0,353,108.73c.19-10.38-8.8-19.76-19.15-19.94-11.29-.21-19.54,8.64-19.52,21.9C314.34,118.65,322.11,127.64,333.37,128.07Z"/><path class="cls-1" d="M110,221.11C50.23,221.54-.18,171.64,0,110.22.18,49.69,49.77-.47,110.69,0c62.13.48,106.05,49.12,109.82,102.19,2.38,33.62-8.57,63.12-32.72,87C166.37,210.46,140.27,221,110,221.11Zm-.15-2.14c60.72.19,112.49-51.08,108.49-115.43C215,48.68,169.33,3.7,113.11,2.27,52.26.72,4,50.11,2.36,107.48.72,166.6,47.87,218.42,109.89,219Z"/><path class="cls-1" d="M526.16,117.61c0,4.53,0,9.06,0,13.6-.06,4.19-2.27,6.71-5.71,6.67-4,0-6-2.19-6.07-6.67-.14-7.73-.36-15.47-.27-23.21.11-11.28-7.83-20-18.75-20.28a19.47,19.47,0,0,0-20.1,19.44c-.11,8.29.14,16.58.23,24.88,0,3.12-1.38,5.5-4.32,6.35a5.22,5.22,0,0,1-6.3-2.49,13.07,13.07,0,0,1-1.4-5.7c-.1-8.85-.67-17.76.2-26.53,1.34-13.48,11.24-23.88,24.58-27.21,19.3-4.81,38.53,12.12,37.52,30.87-.18,3.42,0,6.85-.05,10.28Z"/><path class="cls-1" d="M433.08,96.11c0-4.76,0-9.51,0-14.26a5.77,5.77,0,0,1,5.39-5.61c2.89-.25,5.9,1.89,5.93,4.94.12,10.94.72,21.95-.32,32.79-1.13,11.78-11.66,21.43-23.45,24.26-17.74,4.26-35.55-8.87-37.48-25.12-.51-4.24-.54-8.54-.64-12.81-.13-5.75-.18-11.5-.12-17.25,0-3,1.25-5.41,4.55-6.06,2.95-.59,5.27.33,6.48,3.21a8,8,0,0,1,.49,2.89c.18,8.4.31,16.8.47,25.2.2,10.24,8.12,18.26,18.83,19.1,8.64.68,18.07-6.56,19.44-15.73.76-5.08.16-10.36.18-15.55Z"/><path class="cls-1" d="M263.36,140c-11.45,0-19.66-5.41-22.48-15-.52-1.8-.82-4.27,0-5.7,1-1.66,3.47-3.65,5-3.44a8.07,8.07,0,0,1,5.35,4.1c1.82,4,3.87,7.54,8.37,8.08a28,28,0,0,0,10-.93c2.63-.68,4-3.11,3.86-6a6,6,0,0,0-4.15-5.84,21,21,0,0,0-6.77-1.34c-9.28.11-17.31-6-19.14-15-2.32-11.45,6.15-20.13,16.66-21,6.79-.58,13.3.49,18.3,5.76A12.43,12.43,0,0,1,281.27,88c.91,2.74.3,5.34-2.47,6.85a5.52,5.52,0,0,1-7.45-1.45c-3-3.69-6.8-4.67-11.27-3.5-2.91.75-5.1,2.21-5.14,5.59a6.25,6.25,0,0,0,5.14,6.1,58.11,58.11,0,0,0,7.23.94c14.2,1.34,22.23,16,15.33,28.08C279.17,136.71,272.39,140,263.36,140Z"/><path class="cls-1" d="M283.31,178.5c.92.47,1.38.73,1.85,1,6.63,3.22,9,7.66,8.2,15-.62,5.36-5.64,10.73-11.79,11.52s-12.12.74-18.19,1c-2.77.11-5.55.07-8.31,0-4-.16-5.53-1.72-5.63-5.81-.08-3.65,0-7.3-.05-10.95-.11-9.73-.21-19.47-.39-29.2-.1-5.59,1.93-7.54,6.86-7.35,7.61.31,15.27-.24,22.86.25,6.39.4,10.72,4.36,11.92,10.24,1.11,5.5-1.16,9.84-5.71,13C284.5,177.47,284.11,177.84,283.31,178.5Zm-15.18,20.65v0c1.55,0,3.11.1,4.65,0a21.18,21.18,0,0,0,4.56-.74,7.49,7.49,0,0,0,5.67-7.94c-.27-3.71-2.47-6.21-6.46-6.92a31.3,31.3,0,0,0-7.58-.65c-11.27.8-9.58-2.34-9.52,10,0,6.33.2,6.33,6.35,6.27C266.58,199.14,267.35,199.15,268.13,199.15Zm-8.07-37.77,0,14.6c4.89-.28,9.54-.35,14.14-.85a7.28,7.28,0,0,0,6.53-7.5c-.17-3.55-2.71-6-6.92-6.17C269.27,161.26,264.75,161.39,260.06,161.38Z"/><path class="cls-1" d="M328.32,198.14c3.77,0,7.54,0,11.31,0,3.43.06,4.9,1.32,4.86,4.09-.05,3.22-2.08,4-4.88,4-9.41.12-18.83.39-28.25.48-5.89.07-7.4-1.6-7.53-7.47-.24-11.05-.61-22.1-.84-33.16a54.08,54.08,0,0,1,.34-8.25c.35-2.62,1.81-4.55,4.78-4.62,10.08-.24,20.16-.5,30.24-.61,2.6,0,4.94.8,4.87,4.14s-2.38,4.13-5,4.14c-7,0-14-.22-20.94-.27-3.61,0-4.05.59-3.77,4.07a56.33,56.33,0,0,1,.22,6.62c-.09,2.48,1,3.31,3.37,3.28,6.43-.1,12.86,0,19.3,0,2.59,0,4.79.47,4.81,3.63s-2.07,4-4.89,4c-6.31,0-12.63.24-18.95.21-2.47,0-3.27.89-3.19,3.33.11,3.19-.14,6.4-.33,9.6-.13,2.07.58,3.11,2.8,3.07,3.87-.07,7.75,0,11.63,0Z"/><path class="cls-1" d="M468.35,150.94a19.9,19.9,0,0,1,12.81,3.59c3.12,2.22,5.56,5.12,5,9.11a7,7,0,0,1-3.35,4.67c-.95.48-3.13-1.13-4.57-2.1-.74-.51-1.07-1.64-1.57-2.5a11.87,11.87,0,0,0-16.1-4.18c-4.71,2.8-4.86,7.63,0,10,3.32,1.63,7.1,2.32,10.67,3.44,2.95.93,5.95,1.73,8.83,2.82,12.18,4.63,10.56,20.21,3.08,25.94-7.27,5.58-22,6.08-29.49.69-4-2.86-6.87-6.51-6.89-11.83,0-2.25,1-4,3-4.1a8.48,8.48,0,0,1,5.13,1.88c1.1.86,1.47,2.67,2.13,4.06,3.88,8.24,14.42,7.21,18.85,3.55,4.27-3.54,3.63-9.75-1.57-11.88-4.36-1.79-9.13-2.54-13.6-4.11a29,29,0,0,1-8.53-4.24,13.18,13.18,0,0,1,1.44-21.42C458,151.55,462.89,150.83,468.35,150.94Z"/><path class="cls-1" d="M350.43,201c.64-2,1.47-5.08,2.6-8,4.49-11.75,9.06-23.46,13.62-35.18,1.64-4.22,4.22-6.37,7.68-6.22,3.91.17,6.14,2.5,7.56,6,5.4,13.2,10.9,26.36,16.34,39.54a31.84,31.84,0,0,1,1.11,3.47c.86,3.05-.73,4.9-3.26,6.07-2.71,1.26-4.56-.25-5.68-2.48-1.45-2.85-2.39-6-3.88-8.79a4.43,4.43,0,0,0-3.07-2.14c-5.76-.14-11.52.11-17.28.08-2.09,0-3.23.67-3.88,2.73-.88,2.85-2.12,5.58-3.2,8.36-1,2.59-3.09,3.07-5.44,2.51S350.3,204.49,350.43,201Zm24.29-37.35-1.15.13c-2.27,6.55-4.59,13.08-6.74,19.67-.15.45.9,1.86,1.42,1.87,4.62.17,9.25.11,14.65.13C380,177.69,377.36,170.65,374.72,163.6Z"/><path class="cls-1" d="M419.15,152.11c5.65,0,11.3,0,16.94.06,3.65.05,5.16,1.37,5,4.24-.18,3.16-2.24,4-5,4-3,0-6,.27-9,.15-2.59-.1-3.51.81-3.45,3.43.23,11.49.32,23,.44,34.48a18.21,18.21,0,0,1-.22,3.62c-.5,2.62-1.72,4.47-4.81,4.48s-4.7-1.78-5.08-4.59a68.06,68.06,0,0,1-.65-8.9q-.06-14.58.14-29.16c0-2.32-.86-3.18-3.1-3.12-3,.08-6,0-9,0-3.46-.08-5.3-1.51-5.39-4.09s1.73-4.27,5.2-4.35c6-.15,11.95,0,17.93,0Z"/><path class="cls-1" d="M273.94,44.11c-.53,1.71-1.15,3.4-1.58,5.14-1.1,4.49-2.1,9-3.19,13.51-.5,2.06-1.06,4.29-3.71,4.42s-3.37-2-3.92-4.15q-1.87-7.22-3.78-14.42c-.33-1.24-.71-2.48-1.07-3.72l-.89,0c0,4.17-.05,8.33,0,12.5,0,2.2.55,4.49.1,6.57-.26,1.23-2,2.13-3.1,3.17-.81-1.13-2.3-2.25-2.33-3.41-.22-8-.12-15.93-.14-23.89,0-2,.2-4,2.77-4.06s5.76-1.19,6.79,2.81c1.08,4.16,2.29,8.29,3.45,12.43.44,1.56.91,3.11,1.64,5.59a26.14,26.14,0,0,0,1.34-3c1.35-5,2.73-10,3.95-15.06,1-4.12,4.21-2.75,6.75-2.83,2.71-.09,2.78,2,2.82,4q.19,11.1.35,22.22c0,.77.24,1.73-.12,2.28A20.26,20.26,0,0,1,277.38,67c-.79-1-2.22-2-2.27-3.05-.27-5.41-.19-10.84-.22-16.26,0-1.15,0-2.31,0-3.47Z"/><path class="cls-1" d="M402.65,51.51c3.06-2.89,5.38-5,7.65-7.27,1.27-1.26,2.8-2.45,4.15-.78.53.67-.07,2.92-.86,3.86-3.53,4.18-3.62,4.1-.59,8.79,1,1.58,2.06,3.15,3.06,4.74s1.93,3.39-.21,4.57c-2,1.09-3.27-.35-4.26-2-1.24-2.09-2.52-4.15-3.83-6.2a23.65,23.65,0,0,0-1.48-1.89c-2.46,1.05-3.82,2.64-3.62,5.34A4.5,4.5,0,0,1,402.6,63a22.46,22.46,0,0,1-2.37,3c-.9-.94-2.45-1.8-2.58-2.84a106.36,106.36,0,0,1-.6-11.57c0-4.64-.07-9.29.28-13.91.1-1.24,1.64-2.38,2.51-3.56,1,1.14,2.63,2.22,2.72,3.42C402.88,41.88,402.67,46.28,402.65,51.51Z"/><path class="cls-1" d="M483.57,50.43a89.16,89.16,0,0,1,6.67-6.66c1-.84,3.36-1.51,4.13-1,1.89,1.4.21,2.92-.89,4.1-3.53,3.78-3.56,3.76-.84,8,1.14,1.76,2.31,3.51,3.43,5.28,1,1.57,1.9,3.32-.21,4.59s-3.27-.45-4.24-1.94c-1.75-2.66-3.39-5.4-5.15-8.24-2.71,1.26-4.35,2.83-3.65,5.93a3.22,3.22,0,0,1-.16,2.25c-.67.95-1.72,2.27-2.59,2.25s-1.76-1.43-2.47-2.37c-.28-.36-.11-1.07-.12-1.62-.07-7.29-.15-14.59-.2-21.88,0-1.1-.21-2.37.25-3.26s1.7-1.67,2.59-2.48c.8.9,2.2,1.75,2.29,2.71.32,3.51.19,7.06.23,10.6,0,1.08,0,2.16,0,3.25Z"/><path class="cls-1" d="M324.29,64.35c-4.1,1-7.14,2.08-10.23,2.29A6.64,6.64,0,0,1,307.27,61c-.34-2.41,2.12-5.58,5.23-6.48,2.64-.76,5.38-1.19,8-2,.89-.28,2.26-1.38,2.18-1.92a4.91,4.91,0,0,0-1.86-3.12c-2.28-1.47-5.36-.33-7.64,2-.87.88-2.46,1-3.72,1.54.09-1.49-.33-3.29.37-4.39,2.09-3.26,8.82-4.38,13.8-2.65,3.45,1.19,4.48,3.22,4.62,8.2.1,3.51.6,7,.76,10.52a15.6,15.6,0,0,1-.66,3.51,20.29,20.29,0,0,1-3.42-.94C324.42,65,324.19,64.19,324.29,64.35ZM323,55a58.34,58.34,0,0,0-8.11,2.31,3.86,3.86,0,0,0-1.69,3.36c.21,1,1.85,2.17,3,2.33C321,63.68,323.27,61.15,323,55Z"/><path class="cls-1" d="M363,45.25c1.62-1.62,4-3.19,6.88-1.66,1,.54,1.49,2.06,2.21,3.13-1.08.41-2.22,1.27-3.22,1.14-4-.55-5.63.24-6.22,4.32a93.88,93.88,0,0,0-.5,10.22c-.06,1.82,0,3.82-2.56,3.78s-2.57-2-2.63-3.82c-.17-4.85-.48-9.7-.35-14.53a6.49,6.49,0,0,1,2.1-4.33C359.17,43.08,361.23,44.5,363,45.25Z"/><path class="cls-1" d="M448.53,54a76.8,76.8,0,0,1-.13,8.59c-.13,1.1-1.49,2.06-2.28,3.09-1.06-1-3-1.87-3-2.84-.18-6,0-12.12.28-18.17,0-.85,1.46-1.64,2.24-2.45.9,1,2.46,1.83,2.58,2.87a73.52,73.52,0,0,1,.1,8.91Z"/><path class="cls-1" d="M528.49,53.59a71.36,71.36,0,0,1-.13,8.28c-.14,1.11-1.47,2.06-2.25,3.09-1-1-2.69-1.91-2.77-2.95-.4-5.62-.56-11.27-.4-16.9,0-1.14,1.82-2.23,2.79-3.35.9,1.18,2.38,2.27,2.57,3.54a57.25,57.25,0,0,1,.1,8.29Z"/><path class="cls-1" d="M529.51,36c-1.79,1.14-2.89,2.39-3.72,2.23-1.1-.21-2-1.53-2.95-2.37.95-.92,1.82-2.45,2.87-2.57S527.72,34.6,529.51,36Z"/><path class="cls-1" d="M445.71,32.8c1.18,1.72,2.42,2.73,2.33,3.6s-1.45,1.75-2.24,2.62c-.91-.87-2.33-1.63-2.57-2.66C443.06,35.62,444.45,34.52,445.71,32.8Z"/><path class="cls-1" d="M110.52,9c57,.08,96.41,45.13,100.65,90.81,3.11,33.54-7.65,62.05-32,85.17-19.11,18.17-42.38,27.26-68.69,27.2C51.35,212.09,8.86,163.44,9,110.23,9.21,55.21,54.48,8.45,110.52,9Zm7.82,53c-.85-.94-1.35-1.52-1.88-2.08-11.63-12.25-31.71-12.17-43,.34-5.72,6.34-8.28,14.12-8.37,22.54-.22,18.27-.16,36.54-.22,54.81,0,1.3,0,2.61,0,3.74-.48.21-.58.3-.68.29-.88,0-1.75-.09-2.63-.15-6.18-.4-12,.7-16.81,4.84-6.83,5.83-6.82,15,.11,20.72,5.48,4.53,11.9,5.78,18.76,4.45,10.4-2,15.42-8.21,15.45-18.7.06-22.48.06-45,.23-67.43A33.11,33.11,0,0,1,80.72,76C83,68.64,87.91,65.18,95.24,65.22s12.25,3.72,14.36,11a36.89,36.89,0,0,1,1.34,9.47c.16,8.85,0,17.71,0,26.57,0,4.73,2.88,7.83,7.14,7.9s7.09-3,7.11-7.78c0-7.86,0-15.72.09-23.58A70.2,70.2,0,0,1,126,79.9c1.29-9.06,6.84-14.41,14.9-14.55,8.53-.14,14.16,4.72,15.88,13.87a37.41,37.41,0,0,1,.59,6.6c0,13.73,0,27.46-.08,41.19,0,1-.12,1.93-.18,2.78-.33.14-.43.23-.52.22-.88-.08-1.76-.2-2.64-.25-6.32-.37-12.14.92-17,5.3-5.95,5.39-6.25,13.32-.75,19.15s16,7.75,24.16,4.52c7.88-3.12,11.23-8.44,11.27-18q.09-25.08.1-50.16A112,112,0,0,0,171.12,79c-1.89-17.48-14.91-28.86-32-27.83C130.75,51.63,123.83,55.3,118.34,62Z"/></g></g></svg>